<?xml version="1.0"?>
<svg version="1.1" xmlns="http://www.w3.org/2000/svg" width="200" height="40" style=""><path fill="#0d52ba" d="M15.71484375,14.26953125q0-0.234375,0.36328125-0.333984375t0.59765625-0.099609375q0.26953125,0,0.591796875,0.0703125t0.392578125,0.36328125q0.33984375,1.37109375,0.521484375,2.794921875t0.275390625,2.865234375t0.15234375,2.865234375t0.12890625,2.818359375q0.31640625-1.39453125,0.650390625-2.771484375t0.873046875-2.748046875l0-0.9375q0-0.59765625,0.416015625-0.861328125t1.119140625-0.263671875q0.0703125,0,0.322265625,0.03515625t0.251953125,0.234375q-0.046875,0.140625-0.111328125,0.26953125t-0.064453125,0.28125q0,1.78125,0.421875,3.650390625t0.83203125,3.638671875q0.234375-1.51171875,0.5390625-3.01171875t0.6328125-2.98828125q0.43359375-1.9921875,0.662109375-3.310546875t0.43359375-2.0859375t0.4453125-1.08984375t0.673828125-0.322265625q0.26953125-0.0234375,0.50390625,0.09375t0.1875,0.38671875q-0.84375,4.078125-1.576171875,8.1796875t-1.494140625,8.203125q0,0.234375,0.08203125,0.55078125t0.08203125,0.5625q0,0.140625-0.12890625,0.234375t-0.310546875,0.158203125t-0.3984375,0.087890625t-0.380859375,0.0234375q-0.36328125,0-0.76171875-0.111328125t-0.515625-0.638671875q-0.41015625-1.828125-0.755859375-3.673828125t-0.638671875-3.720703125q-0.09375,0.43359375-0.17578125,0.87890625t-0.15234375,0.90234375q-0.33984375,1.9921875-0.75,3.984375t-0.41015625,4.03125q0,0.50390625-0.2109375,0.650390625t-0.71484375,0.146484375q-0.38671875,0-0.65625-0.12890625q-0.2109375-0.1171875-0.3984375-0.2109375q-0.1640625-0.09375-0.298828125-0.216796875t-0.134765625-0.240234375q-0.1875-2.54296875-0.263671875-5.05078125t-0.169921875-5.05078125q-0.09375-2.28515625-0.275390625-4.564453125t-0.404296875-4.529296875z M29.9492578125,27.62890625q0-0.796875,0.216796875-1.53515625t0.650390625-1.318359375t1.083984375-0.92578125t1.505859375-0.345703125q0.52734375,0,1.166015625,0.158203125t1.201171875,0.46875t0.9375,0.791015625t0.375,1.1015625q0,0.29296875-0.099609375,0.4453125t-0.404296875,0.15234375l-0.12890625-0.0234375q0.33984375,0.9140625,0.5859375,1.875t0.48046875,1.921875q0.09375,0.1875,0.140625,0.333984375t0.046875,0.287109375q0,0.1875-0.10546875,0.310546875t-0.275390625,0.181640625t-0.3515625,0.08203125t-0.322265625,0.0234375q-0.50390625,0-0.755859375-0.17578125t-0.36328125-0.48046875t-0.134765625-0.685546875t-0.09375-0.767578125q-0.140625,0.45703125-0.369140625,0.890625t-0.5390625,0.779296875t-0.732421875,0.55078125t-0.94921875,0.205078125q-0.7734375,0-1.30078125-0.4453125t-0.849609375-1.095703125t-0.46875-1.388671875t-0.146484375-1.37109375z M31.6133203125,27.46484375q0,0.43359375,0.05859375,0.9140625t0.193359375,0.94921875t0.345703125,0.884765625t0.52734375,0.732421875q0.57421875-0.62109375,0.849609375-1.51171875t0.4921875-1.716796875t0.4921875-1.41796875t0.849609375-0.591796875q0.36328125,0,0.609375,0.12890625q-0.1171875-0.29296875-0.38671875-0.568359375t-0.603515625-0.50390625t-0.69140625-0.375t-0.673828125-0.146484375q-0.09375,0-0.216796875,0.029296875t-0.193359375,0.005859375q-0.48046875,0.140625-0.791015625,0.486328125t-0.50390625,0.814453125t-0.275390625,0.9609375t-0.08203125,0.92578125z M40.105546875,31.7890625q0-0.33984375,0.029296875-0.71484375t0.052734375-0.703125l0.0703125-1.7578125q0.1171875-2.109375,0.287109375-4.1484375t0.287109375-4.125q0.0703125-1.1484375,0.10546875-2.255859375t0.10546875-2.255859375q-0.046875-0.09375-0.046875-0.12890625q0-0.1640625,0.123046875-0.2578125t0.287109375-0.158203125t0.345703125-0.087890625t0.275390625-0.0234375l0.26953125,0q0.36328125,0.046875,0.52734375,0.228515625t0.2109375,0.43359375t0.0234375,0.5390625t-0.0234375,0.533203125q0,1.69921875-0.08203125,3.462890625t-0.1875,3.5390625t-0.193359375,3.55078125t-0.087890625,3.509765625l0,0.8203125q0,0.55078125-0.310546875,0.7265625t-0.861328125,0.17578125q-0.48046875,0-0.84375-0.2109375t-0.36328125-0.69140625z M45.4805859375,28.109375q0-0.8203125,0.181640625-1.93359375t0.615234375-2.109375t1.142578125-1.693359375t1.787109375-0.697265625q1.0078125,0,1.51171875,0.580078125t0.50390625,1.564453125q0,0.64453125-0.240234375,1.412109375t-0.685546875,1.453125t-1.0546875,1.142578125t-1.359375,0.45703125l-0.3046875-0.0234375q0,0.31640625,0.09375,0.849609375t0.275390625,1.060546875t0.46875,0.92578125t0.697265625,0.3984375q0.59765625,0,1.1484375-0.48046875t1.04296875-1.06640625t0.9140625-1.06640625t0.7734375-0.48046875q0.1875,0,0.38671875,0.05859375t0.22265625,0.328125q0,0.1640625-0.087890625,0.26953125t-0.158203125,0.234375q-0.36328125,0.62109375-0.791015625,1.18359375t-0.966796875,1.01953125t-1.177734375,0.720703125t-1.412109375,0.263671875q-1.0078125,0-1.67578125-0.357421875t-1.078125-0.9609375t-0.591796875-1.39453125t-0.181640625-1.658203125z M47.5782421875,27.21875l0.328125,0.29296875q0.234375,0.2109375,0.46875,0.09375t0.421875-0.427734375t0.345703125-0.767578125t0.28125-0.9375t0.181640625-0.9375t0.05859375-0.76171875l0-0.3984375t-0.03515625-0.421875t-0.123046875-0.333984375t-0.275390625-0.169921875q-0.05859375-0.01171875-0.10546875-0.01171875q-0.3984375,0-0.6796875,0.50390625q-0.3046875,0.5625-0.4921875,1.365234375t-0.26953125,1.646484375t-0.10546875,1.265625z M55.27359375,28.109375q0-0.8203125,0.181640625-1.93359375t0.615234375-2.109375t1.142578125-1.693359375t1.787109375-0.697265625q1.0078125,0,1.51171875,0.580078125t0.50390625,1.564453125q0,0.64453125-0.240234375,1.412109375t-0.685546875,1.453125t-1.0546875,1.142578125t-1.359375,0.45703125l-0.3046875-0.0234375q0,0.31640625,0.09375,0.849609375t0.275390625,1.060546875t0.46875,0.92578125t0.697265625,0.3984375q0.59765625,0,1.1484375-0.48046875t1.04296875-1.06640625t0.9140625-1.06640625t0.7734375-0.48046875q0.1875,0,0.38671875,0.05859375t0.22265625,0.328125q0,0.1640625-0.087890625,0.26953125t-0.158203125,0.234375q-0.36328125,0.62109375-0.791015625,1.18359375t-0.966796875,1.01953125t-1.177734375,0.720703125t-1.412109375,0.263671875q-1.0078125,0-1.67578125-0.357421875t-1.078125-0.9609375t-0.591796875-1.39453125t-0.181640625-1.658203125z M57.37125,27.21875l0.328125,0.29296875q0.234375,0.2109375,0.46875,0.09375t0.421875-0.427734375t0.345703125-0.767578125t0.28125-0.9375t0.181640625-0.9375t0.05859375-0.76171875l0-0.3984375t-0.03515625-0.421875t-0.123046875-0.333984375t-0.275390625-0.169921875q-0.05859375-0.01171875-0.10546875-0.01171875q-0.3984375,0-0.6796875,0.50390625q-0.3046875,0.5625-0.4921875,1.365234375t-0.26953125,1.646484375t-0.10546875,1.265625z M65.0666015625,27.48828125q0-0.9140625,0.193359375-1.658203125t0.615234375-1.259765625t1.107421875-0.802734375t1.669921875-0.287109375q0.55078125,0,1.125,0.146484375t0.984375,0.544921875q0-0.234375,0.046875-0.966796875t0.1171875-1.705078125t0.146484375-2.0390625t0.134765625-1.98046875t0.10546875-1.53515625t0.0703125-0.703125q0.1171875-0.33984375,0.43359375-0.404296875t0.59765625-0.064453125q0.73828125,0,0.908203125,0.234375t0.169921875,0.9375q0,2.56640625-0.228515625,5.109375t-0.228515625,5.109375q0,1.65234375,0.064453125,3.322265625t0.462890625,3.287109375l0.12890625,0.1171875l0.0703125,0.2109375l-0.17578125,0.26953125q-0.4453125,0.28125-1.03125,0.28125l-0.046875,0q-0.59765625,0-1.1015625-0.28125q-0.1875-0.1171875-0.310546875-0.697265625t-0.193359375-1.27734375t-0.10546875-1.341796875t-0.05859375-0.9140625q-0.41015625,0.9375-1.119140625,1.611328125t-1.787109375,0.673828125q-0.84375,0-1.3828125-0.36328125t-0.837890625-0.92578125t-0.421875-1.259765625t-0.123046875-1.388671875z M66.4845703125,27.55859375q0,0.26953125,0.064453125,0.796875t0.205078125,1.0546875t0.392578125,0.9375t0.662109375,0.41015625q0.55078125-0.26953125,0.99609375-0.896484375t0.767578125-1.3828125t0.50390625-1.51171875t0.181640625-1.306640625q0-0.69140625-0.50390625-1.1484375t-1.20703125-0.45703125q-0.2109375,0-0.427734375,0.08203125t-0.404296875,0.1875q-0.43359375,0.41015625-0.673828125,0.744140625t-0.36328125,0.69140625t-0.158203125,0.791015625t-0.03515625,1.0078125z M80.6565234375,31.73046875q0-0.0703125,0.046875-0.498046875t0.123046875-1.04296875t0.169921875-1.32421875t0.1640625-1.341796875t0.123046875-1.11328125t0.052734375-0.64453125q-0.09375-0.046875-0.228515625-0.134765625t-0.134765625-0.205078125q0-0.1640625,0.158203125-0.263671875t0.275390625-0.146484375q0.046875-0.59765625,0.1171875-1.6640625t0.216796875-2.302734375t0.41015625-2.5078125t0.697265625-2.30859375t1.04296875-1.693359375t1.5-0.65625t1.4765625,0.5625t0.955078125,1.46484375t0.5625,2.00390625t0.29296875,2.19140625t0.123046875,2.0390625t0.046875,1.5234375q0.0234375,0.36328125,0.17578125,0.486328125t0.333984375,0.169921875t0.328125,0.10546875t0.146484375,0.29296875q0,0.26953125-0.328125,0.375t-0.515625,0.12890625q0.1171875,1.46484375,0.322265625,2.8828125t0.544921875,2.859375q0.046875,0.26953125,0.12890625,0.544921875t0.08203125,0.533203125q0,0.1875-0.12890625,0.310546875t-0.333984375,0.193359375t-0.41015625,0.09375t-0.345703125,0.0234375q-0.52734375,0-0.890625-0.19921875t-0.48046875-0.76171875q-0.31640625-1.51171875-0.62109375-3.17578125q-0.2578125-1.44140625-0.2578125-2.80078125q0-0.2109375,0.01171875-0.421875q-0.984375,0-1.98046875,0.046875t-1.91015625,0.3515625q-0.0234375,0.31640625-0.1171875,1.1953125t-0.2109375,1.88671875t-0.240234375,1.927734375t-0.146484375,1.306640625q-0.0234375,0.1640625-0.240234375,0.310546875t-0.46875,0.158203125t-0.4453125-0.158203125t-0.193359375-0.603515625z M82.8479296875,24.62890625q0.9140625-0.2109375,1.833984375-0.24609375t1.857421875-0.08203125q-0.046875-0.29296875-0.0234375-0.603515625t0.0234375-0.626953125q0-0.69140625-0.03515625-1.60546875t-0.10546875-1.8515625t-0.181640625-1.845703125t-0.251953125-1.6171875t-0.298828125-1.130859375t-0.345703125-0.421875q-0.36328125,0.0234375-0.685546875,0.626953125t-0.5859375,1.53515625t-0.48046875,2.0859375t-0.36328125,2.255859375t-0.240234375,2.05078125t-0.1171875,1.4765625z M92.41828125,17.908203125q-0.0234375-0.310546875,0.052734375-0.5859375t0.287109375-0.45703125t0.71484375-0.181640625q0.1171875,0,0.287109375,0.0234375t0.33984375,0.076171875t0.275390625,0.146484375t0.10546875,0.2578125q0,0.43359375,0.029296875,1.142578125t0.076171875,1.4765625t0.087890625,1.5t0.076171875,1.189453125q0.9140625-0.046875,1.83984375-0.046875t1.828125-0.046875l1.6171875-0.046875l0-1.16015625q0-1.9453125-0.076171875-3.896484375t-0.263671875-3.896484375q0-0.140625,0.1171875-0.228515625t0.275390625-0.134765625t0.328125-0.05859375t0.263671875-0.01171875q0.26953125,0,0.580078125,0.08203125t0.357421875,0.3515625l0.0703125,0.50390625q0.29296875,2.109375,0.3984375,4.171875t0.15234375,4.125q0.140625,0.0234375,0.298828125,0.076171875t0.322265625,0.099609375q0.1171875,0.046875,0.333984375,0.140625t0.216796875,0.29296875q0,0.1875-0.1640625,0.29296875t-0.369140625,0.158203125t-0.3984375,0.064453125t-0.240234375,0.01171875q0.0234375,0.8671875,0.0234375,1.728515625l0,1.728515625l0,3.78515625l0,2.109375q0,0.140625-0.134765625,0.251953125t-0.322265625,0.181640625t-0.392578125,0.09375t-0.369140625,0.0234375t-0.38671875-0.0234375t-0.3984375-0.09375t-0.310546875-0.17578125t-0.134765625-0.2578125l0-0.50390625q0.046875-2.2265625,0.10546875-4.412109375t0.1171875-4.388671875q-1.27734375,0.046875-2.595703125,0.05859375t-2.619140625,0.05859375q0.140625,1.65234375,0.322265625,3.298828125t0.380859375,3.298828125q0,0.140625-0.134765625,0.251953125t-0.31640625,0.181640625t-0.38671875,0.09375t-0.369140625,0.0234375q-0.33984375,0-0.744140625-0.1171875t-0.451171875-0.43359375q-0.140625-1.2421875-0.263671875-2.7421875t-0.216796875-3.064453125t-0.146484375-3.064453125t-0.052734375-2.71875q0-0.29296875-0.0234375-0.603515625z M105.8382421875,24.693359375q-0.029296875-0.392578125,0.046875-0.720703125t0.3046875-0.533203125t0.732421875-0.205078125q0.1171875,0,0.287109375,0.029296875t0.333984375,0.076171875t0.275390625,0.140625t0.111328125,0.2578125l0,1.32421875q0.45703125-0.52734375,0.99609375-0.755859375t1.23046875-0.228515625q0.52734375,0,1.04296875,0.240234375t0.97265625,0.638671875t0.791015625,0.87890625t0.486328125,0.9609375q0.09375-0.43359375,0.2109375-1.060546875t0.345703125-1.201171875t0.603515625-0.984375t0.99609375-0.41015625q0.66796875,0,1.125,0.48046875t0.744140625,1.248046875t0.43359375,1.716796875t0.216796875,1.875t0.0703125,1.728515625l0,1.259765625q0,0.140625-0.10546875,0.228515625t-0.263671875,0.134765625t-0.328125,0.05859375t-0.263671875,0.01171875q-0.36328125,0-0.662109375-0.111328125t-0.298828125-0.568359375l0-1.0546875t-0.0234375-1.365234375t-0.08203125-1.46484375t-0.15234375-1.330078125t-0.240234375-0.9609375t-0.357421875-0.375q-0.29296875,0-0.421875,0.328125t-0.216796875,0.83203125t-0.134765625,1.06640625t-0.12890625,1.06640625t-0.263671875,0.826171875t-0.498046875,0.322265625q-0.33984375,0-0.59765625-0.322265625t-0.509765625-0.802734375t-0.50390625-1.03125t-0.556640625-1.03125q-0.3046875-0.4921875-0.65625-0.796875q-0.31640625-0.29296875-0.71484375-0.28125l-0.05859375,0q-0.52734375,0.0234375-0.826171875,0.380859375t-0.45703125,0.873046875t-0.193359375,1.107421875t-0.03515625,1.037109375q0,0.421875,0.0703125,0.984375q0.046875,0.375,0.046875,0.71484375q0,0.17578125-0.01171875,0.33984375q-0.03515625,0.4921875-0.263671875,0.826171875t-0.849609375,0.333984375q-0.234375,0-0.5859375-0.046875t-0.46875-0.31640625q-0.26953125-0.48046875-0.41015625-1.212890625t-0.2109375-1.51171875t-0.08203125-1.546875t-0.01171875-1.318359375q0-0.38671875-0.029296875-0.779296875z M120.617578125,28.109375q0-0.8203125,0.181640625-1.93359375t0.615234375-2.109375t1.142578125-1.693359375t1.787109375-0.697265625q1.0078125,0,1.51171875,0.580078125t0.50390625,1.564453125q0,0.64453125-0.240234375,1.412109375t-0.685546875,1.453125t-1.0546875,1.142578125t-1.359375,0.45703125l-0.3046875-0.0234375q0,0.31640625,0.09375,0.849609375t0.275390625,1.060546875t0.46875,0.92578125t0.697265625,0.3984375q0.59765625,0,1.1484375-0.48046875t1.04296875-1.06640625t0.9140625-1.06640625t0.7734375-0.48046875q0.1875,0,0.38671875,0.05859375t0.22265625,0.328125q0,0.1640625-0.087890625,0.26953125t-0.158203125,0.234375q-0.36328125,0.62109375-0.791015625,1.18359375t-0.966796875,1.01953125t-1.177734375,0.720703125t-1.412109375,0.263671875q-1.0078125,0-1.67578125-0.357421875t-1.078125-0.9609375t-0.591796875-1.39453125t-0.181640625-1.658203125z M122.715234375,27.21875l0.328125,0.29296875q0.234375,0.2109375,0.46875,0.09375t0.421875-0.427734375t0.345703125-0.767578125t0.28125-0.9375t0.181640625-0.9375t0.05859375-0.76171875l0-0.3984375t-0.03515625-0.421875t-0.123046875-0.333984375t-0.275390625-0.169921875q-0.05859375-0.01171875-0.10546875-0.01171875q-0.3984375,0-0.6796875,0.50390625q-0.3046875,0.5625-0.4921875,1.365234375t-0.26953125,1.646484375t-0.10546875,1.265625z M130.4105859375,27.48828125q0-0.9140625,0.193359375-1.658203125t0.615234375-1.259765625t1.107421875-0.802734375t1.669921875-0.287109375q0.55078125,0,1.125,0.146484375t0.984375,0.544921875q0-0.234375,0.046875-0.966796875t0.1171875-1.705078125t0.146484375-2.0390625t0.134765625-1.98046875t0.10546875-1.53515625t0.0703125-0.703125q0.1171875-0.33984375,0.43359375-0.404296875t0.59765625-0.064453125q0.73828125,0,0.908203125,0.234375t0.169921875,0.9375q0,2.56640625-0.228515625,5.109375t-0.228515625,5.109375q0,1.65234375,0.064453125,3.322265625t0.462890625,3.287109375l0.12890625,0.1171875l0.0703125,0.2109375l-0.17578125,0.26953125q-0.4453125,0.28125-1.03125,0.28125l-0.046875,0q-0.59765625,0-1.1015625-0.28125q-0.1875-0.1171875-0.310546875-0.697265625t-0.193359375-1.27734375t-0.10546875-1.341796875t-0.05859375-0.9140625q-0.41015625,0.9375-1.119140625,1.611328125t-1.787109375,0.673828125q-0.84375,0-1.3828125-0.36328125t-0.837890625-0.92578125t-0.421875-1.259765625t-0.123046875-1.388671875z M131.8285546875,27.55859375q0,0.26953125,0.064453125,0.796875t0.205078125,1.0546875t0.392578125,0.9375t0.662109375,0.41015625q0.55078125-0.26953125,0.99609375-0.896484375t0.767578125-1.3828125t0.50390625-1.51171875t0.181640625-1.306640625q0-0.69140625-0.50390625-1.1484375t-1.20703125-0.45703125q-0.2109375,0-0.427734375,0.08203125t-0.404296875,0.1875q-0.43359375,0.41015625-0.673828125,0.744140625t-0.36328125,0.69140625t-0.158203125,0.791015625t-0.03515625,1.0078125z"/><path fill="#" d=""/></svg>
